<svg xmlns="http://www.w3.org/2000/svg" viewBox="0 0 232 232"><g stroke-width="2" fill="none" stroke-linecap="butt"><path stroke="#80b4bc" vector-effect="non-scaling-stroke" d="M83.23 121.9q.81-.55.2-1.32-.96-1.22-.96-2.81-.01-12.84-.01-25.53 0-.26-.25-.24l-5.66.38q-.23.02-.23.25-.01 13.15 0 24.82.01 3.32 2.52 6.39.55.67 1.26.19l3.13-2.13"/><path stroke="#509b60" vector-effect="non-scaling-stroke" d="M94.16 101.16q2.5-.26 4.37-2.06.76-.74.22-1.65l-.51-.88q-.56-.96-1.47-.33-3.39 2.35-7.14.06-.47-.29-.95-.01-.87.53-1.36 1.38-.3.52.11.96 2.75 2.94 6.73 2.53"/><path stroke="#80b4bc" vector-effect="non-scaling-stroke" d="M104.64 103.16l-1.51.09a.81.81 0 0 0-.76.74l-.25 2.7a.76.76 0 0 0 .83.82l1.43-.13q.64-.06.63.58-.08 5.32.07 10.12.2 6.73 7.42 5.74 2.02-.28 3.77-1.27.52-.3.19-.8-.6-.94-.71-2.12-.07-.69-.76-.62l-1.98.19q-.54.06-.96-.27-1.24-.98-1.21-2.59.06-4.04-.01-8.25-.01-.64.62-.63l3.51.02q.45 0 .51-.44l.46-3.55q.06-.49-.44-.49l-4.06.01q-.59 0-.59-.58l.03-4.19q.01-.68-.63-.48l-4.44 1.39q-.67.21-.67.92l.02 2.54q.01.52-.51.55"/><path stroke="#509b60" vector-effect="non-scaling-stroke" d="M187.66 105.73l-.48-2.87q-.1-.61-.7-.49l-3.46.66q-.56.11-.51.68.83 9.51.43 18.65-.03.64.61.64h4.7q.54 0 .56-.54.11-4.39-.02-9.5c-.1-3.69 1.6-6.28 5.87-5.09a.48.48 0 0 0 .59-.34l1.09-4.1q.12-.44-.3-.61-3.41-1.37-6.39.75c-.78.57-1.15 1.41-1.6 2.23q-.29.52-.39-.07M196.91 110.41c-.76 4.85.12 12 6.02 12.92 8.36 1.3 12.2-4.12 11.71-11.68-.31-4.74-1.79-9-7.38-9.37q-8.97-.6-10.35 8.13M24.48 114.85l8.47-.04q.54 0 .62-.54c.43-3.32 0-9.77-3.54-10.92q-8.14-2.63-11.82 3.85c-1.47 2.59-1.31 6.1-1.05 9.02.8 8.86 10.21 8.91 16.17 5.82q.21-.1.14-.32l-1.15-3.5q-.1-.3-.38-.17-3.36 1.5-6.07 1.05a2.73 2.71 86.2 0 1-2.17-1.91l-.27-.92q-.43-1.41 1.05-1.42M54.25 129.91q-2.02.42-4.52.62-.27.02-.47.22-.2.2-.13.48a.82.81 85.8 0 0 .7.61q2 .22 3.91-.42.63-.21.27.35c-.77 1.17-1.81 2.11-3.12 2.64q-.85.34.07.37 1.54.05 3.15-.22.83-.14.38.58-.7 1.09-1.17 2.33-.68 1.81 1.1 1.06l1.08-.44q1.03-.43.82.66l-.09.44q-.16.85.71.79l4.85-.34a.72.71 88.3 0 0 .67-.72l.04-14.47"/><path stroke="#80b4bc" vector-effect="non-scaling-stroke" d="M62.5 124.45q-.34-.1-.22-.44.14-.43.59-.34 6.89 1.45 9.7-5.01 2.37-5.46.15-11.85-1-2.86-3.81-3.78-4.41-1.44-7.54 1.91-.47.5-.49-.19l-.02-.95q-.02-.79-.81-.73l-3.57.28q-.53.05-.5.57.7 12.61.15 22.08-.1 1.73-1.88 3.91"/><path stroke="#cfe6a3" vector-effect="non-scaling-stroke" d="M62.5 124.45q-.8 1.84-1.64 3.47-1.03 2.02-2.56 2.59-2.2.82-4.05-.6"/><path stroke="#80b4bc" vector-effect="non-scaling-stroke" d="M124.94 114.86l8.3-.02q.6 0 .67-.6c.65-6.02-.24-11.89-7.62-11.66q-4.6.14-6.92 3.59-3.7 5.52-.72 13.4c2.19 5.82 10.41 4.82 14.91 2.58a.65.65 0 0 0 .33-.79l-.94-2.85q-.18-.53-.7-.34-2.18.76-4.44 1.07-2.27.31-3.36-1.7l-.52-.97q-.92-1.7 1.01-1.71M142.23 108.13q.34-.6.99-.97a1.6 1.58-45.4 0 1 1.56-.02q1.1.59 1.35 1.77.19.9 1.08.69l3.67-.89q1-.25.65-1.22-1.96-5.55-8.47-4.88c-4.16.44-7.6 3.03-6.83 7.71.57 3.42 5.51 5.16 8.35 6.49a1.23 1.22-48.8 0 1 .14 2.14c-1.49.97-5.31-.58-6.79-1.13q-.28-.1-.42.16l-1.86 3.46q-.15.28.13.43c4.07 2.17 11.62 3.66 14.69-1 4.53-6.85-4.13-8.5-7.84-11a1.3 1.3 0 0 1-.4-1.74M163.45 108.12q.56.96.52 1.99-.03.76.73.76l4.31-.04a.77.77 0 0 0 .77-.8c-.08-2.39-.8-5.43-3.28-6.57q-3.39-1.54-7.23-.21c-6.72 2.31-6.95 11.67-4.39 16.93 2.47 5.08 10.29 4.23 14.32 1.98q.84-.46.53-1.37l-.7-2.07q-.25-.75-1-.51c-3.71 1.17-7.41 2.33-8.09-3.04-.24-1.97-.8-8.35 2.73-7.61q.51.11.78.56M94.01 111.19q-3.69.14-6.5 1.68c-4.54 2.48-3.95 10.8 2.07 11.05q3.87.15 5.81-2.3a.46.45-47.3 0 1 .69-.03l1.84 2.01a.86.86 0 0 0 1.21.05l2.56-2.41a.71.7-43 0 0 .04-.99c-.72-.77-1.09-1.7-1.07-2.77q.09-4.78-.05-9.31c-.07-2.28-1.52-4.71-3.94-5.04q-6.24-.87-11.08 1.43-.26.13-.14.39l1.49 3.34q.14.31.46.18 3.04-1.3 6.18-.9.64.08.73.73l.3 2.18q.09.68-.6.71"/><path stroke="#509b60" vector-effect="non-scaling-stroke" d="M48.08 122.17l.21.94q.14.67.82.58l3.01-.4q.79-.11.79-.91l-.08-18.88q-.01-.58-.59-.54l-5.15.35q-.55.04-.55.59l.01 13.12q0 1.92-1.91 2.12-.31.03-.62.01-1.57-.12-1.57-1.69l.02-14q0-.5-.51-.48l-5.2.22q-.56.03-.57.59c-.07 4.68.04 9.23-.01 13.73-.09 6.77 6.51 7.93 11.25 4.41q.52-.39.65.24M179.77 120.11a3.6 3.6 0 0 0-3.6-3.6 3.6 3.6 0 0 0-3.6 3.6 3.6 3.6 0 0 0 3.6 3.6 3.6 3.6 0 0 0 3.6-3.6M205.757 119.21a6.17 2.84 89.1 0 0 2.743-6.215 6.17 2.84 89.1 0 0-2.937-6.124 6.17 2.84 89.1 0 0-2.743 6.214 6.17 2.84 89.1 0 0 2.937 6.124M23.9 110.97l3.34.02a.44.44 0 0 0 .44-.44v-.34a2.74 1.86-89.6 0 0-1.84-2.75h-.5a2.74 1.86-89.6 0 0-1.88 2.73v.34a.44.44 0 0 0 .44.44"/><path stroke="#80b4bc" vector-effect="non-scaling-stroke" d="M62.45 108.52l.02 9.58a1.07 1.07 0 0 0 1.07 1.07h.89a3.77 2.72 89.9 0 0 2.71-3.77v-4.18a3.77 2.72 89.9 0 0-2.73-3.77h-.89a1.07 1.07 0 0 0-1.07 1.07M124.51 110.97l3.4.04a.46.46 0 0 0 .47-.46v-.32a2.74 1.89-89.4 0 0-1.86-2.76h-.54a2.74 1.89-89.4 0 0-1.92 2.72v.32a.46.46 0 0 0 .45.46M93.84 119.21a.61.61 0 0 0 .55-.56l.21-3.09a.61.61 0 0 0-.83-.61l-2.87 1.13a.61.61 0 0 0-.39.57l.04 2.19a.61.61 0 0 0 .66.6l2.63-.23"/></g><path fill="#006978" d="M0 0h232v232H0V0zm83.23 121.9q.81-.55.2-1.32-.96-1.22-.96-2.81-.01-12.84-.01-25.53 0-.26-.25-.24l-5.66.38q-.23.02-.23.25-.01 13.15 0 24.82.01 3.32 2.52 6.39.55.67 1.26.19l3.13-2.13zm10.93-20.74q2.5-.26 4.37-2.06.76-.74.22-1.65l-.51-.88q-.56-.96-1.47-.33-3.39 2.35-7.14.06-.47-.29-.95-.01-.87.53-1.36 1.38-.3.52.11.96 2.75 2.94 6.73 2.53zm10.48 2l-1.51.09a.81.81 0 0 0-.76.74l-.25 2.7a.76.76 0 0 0 .83.82l1.43-.13q.64-.06.63.58-.08 5.32.07 10.12.2 6.73 7.42 5.74 2.02-.28 3.77-1.27.52-.3.19-.8-.6-.94-.71-2.12-.07-.69-.76-.62l-1.98.19q-.54.06-.96-.27-1.24-.98-1.21-2.59.06-4.04-.01-8.25-.01-.64.62-.63l3.51.02q.45 0 .51-.44l.46-3.55q.06-.49-.44-.49l-4.06.01q-.59 0-.59-.58l.03-4.19q.01-.68-.63-.48l-4.44 1.39q-.67.21-.67.92l.02 2.54q.01.52-.51.55zm83.02 2.57l-.48-2.87q-.1-.61-.7-.49l-3.46.66q-.56.11-.51.68.83 9.51.43 18.65-.03.64.61.64h4.7q.54 0 .56-.54.11-4.39-.02-9.5c-.1-3.69 1.6-6.28 5.87-5.09a.48.48 0 0 0 .59-.34l1.09-4.1q.12-.44-.3-.61-3.41-1.37-6.39.75c-.78.57-1.15 1.41-1.6 2.23q-.29.52-.39-.07zm9.25 4.68c-.76 4.85.12 12 6.02 12.92 8.36 1.3 12.2-4.12 11.71-11.68-.31-4.74-1.79-9-7.38-9.37q-8.97-.6-10.35 8.13zm-172.43 4.44l8.47-.04q.54 0 .62-.54c.43-3.32 0-9.77-3.54-10.92q-8.14-2.63-11.82 3.85c-1.47 2.59-1.31 6.1-1.05 9.02.8 8.86 10.21 8.91 16.17 5.82q.21-.1.14-.32l-1.15-3.5q-.1-.3-.38-.17-3.36 1.5-6.07 1.05a2.73 2.71 86.2 0 1-2.17-1.91l-.27-.92q-.43-1.41 1.05-1.42zm29.77 15.06q-2.02.42-4.52.62-.27.02-.47.22-.2.2-.13.48a.82.81 85.8 0 0 .7.61q2 .22 3.91-.42.63-.21.27.35c-.77 1.17-1.81 2.11-3.12 2.64q-.85.34.07.37 1.54.05 3.15-.22.83-.14.38.58-.7 1.09-1.17 2.33-.68 1.81 1.1 1.06l1.08-.44q1.03-.43.82.66l-.09.44q-.16.85.71.79l4.85-.34a.72.71 88.3 0 0 .67-.72l.04-14.47q-.34-.1-.22-.44.14-.43.59-.34 6.89 1.45 9.7-5.01 2.37-5.46.15-11.85-1-2.86-3.81-3.78-4.41-1.44-7.54 1.91-.47.5-.49-.19l-.02-.95q-.02-.79-.81-.73l-3.57.28q-.53.05-.5.57.7 12.61.15 22.08-.1 1.73-1.88 3.91zm70.69-15.05l8.3-.02q.6 0 .67-.6c.65-6.02-.24-11.89-7.62-11.66q-4.6.14-6.92 3.59-3.7 5.52-.72 13.4c2.19 5.82 10.41 4.82 14.91 2.58a.65.65 0 0 0 .33-.79l-.94-2.85q-.18-.53-.7-.34-2.18.76-4.44 1.07-2.27.31-3.36-1.7l-.52-.97q-.92-1.7 1.01-1.71zm17.29-6.73q.34-.6.99-.97a1.6 1.58-45.4 0 1 1.56-.02q1.1.59 1.35 1.77.19.9 1.08.69l3.67-.89q1-.25.65-1.22-1.96-5.55-8.47-4.88c-4.16.44-7.6 3.03-6.83 7.71.57 3.42 5.51 5.16 8.35 6.49a1.23 1.22-48.8 0 1 .14 2.14c-1.49.97-5.31-.58-6.79-1.13q-.28-.1-.42.16l-1.86 3.46q-.15.28.13.43c4.07 2.17 11.62 3.66 14.69-1 4.53-6.85-4.13-8.5-7.84-11a1.3 1.3 0 0 1-.4-1.74zm21.22-.01q.56.96.52 1.99-.03.76.73.76l4.31-.04a.77.77 0 0 0 .77-.8c-.08-2.39-.8-5.43-3.28-6.57q-3.39-1.54-7.23-.21c-6.72 2.31-6.95 11.67-4.39 16.93 2.47 5.08 10.29 4.23 14.32 1.98q.84-.46.53-1.37l-.7-2.07q-.25-.75-1-.51c-3.71 1.17-7.41 2.33-8.09-3.04-.24-1.97-.8-8.35 2.73-7.61q.51.11.78.56zm-69.44 3.07q-3.69.14-6.5 1.68c-4.54 2.48-3.95 10.8 2.07 11.05q3.87.15 5.81-2.3a.46.45-47.3 0 1 .69-.03l1.84 2.01a.86.86 0 0 0 1.21.05l2.56-2.41a.71.7-43 0 0 .04-.99c-.72-.77-1.09-1.7-1.07-2.77q.09-4.78-.05-9.31c-.07-2.28-1.52-4.71-3.94-5.04q-6.24-.87-11.08 1.43-.26.13-.14.39l1.49 3.34q.14.31.46.18 3.04-1.3 6.18-.9.64.08.73.73l.3 2.18q.09.68-.6.71zm-45.93 10.98l.21.94q.14.67.82.58l3.01-.4q.79-.11.79-.91l-.08-18.88q-.01-.58-.59-.54l-5.15.35q-.55.04-.55.59l.01 13.12q0 1.92-1.91 2.12-.31.03-.62.01-1.57-.12-1.57-1.69l.02-14q0-.5-.51-.48l-5.2.22q-.56.03-.57.59c-.07 4.68.04 9.23-.01 13.73-.09 6.77 6.51 7.93 11.25 4.41q.52-.39.65.24zm131.69-2.06a3.6 3.6 0 0 0-3.6-3.6 3.6 3.6 0 0 0-3.6 3.6 3.6 3.6 0 0 0 3.6 3.6 3.6 3.6 0 0 0 3.6-3.6z"/><path fill="#fff" d="M83.23 121.9l-3.13 2.13q-.71.48-1.26-.19-2.51-3.07-2.52-6.39-.01-11.67 0-24.82 0-.23.23-.25l5.66-.38q.25-.02.25.24 0 12.69.01 25.53 0 1.59.96 2.81.61.77-.2 1.32z"/><path fill="#9fcc47" d="M94.16 101.16q-3.98.41-6.73-2.53-.41-.44-.11-.96.49-.85 1.36-1.38.48-.28.95.01 3.75 2.29 7.14-.06.91-.63 1.47.33l.51.88q.54.91-.22 1.65-1.87 1.8-4.37 2.06z"/><path fill="#fff" d="M105.15 102.61l-.02-2.54q0-.71.67-.92l4.44-1.39q.64-.2.63.48l-.03 4.19q0 .58.59.58l4.06-.01q.5 0 .44.49l-.46 3.55q-.06.44-.51.44l-3.51-.02q-.63-.01-.62.63.07 4.21.01 8.25-.03 1.61 1.21 2.59.42.33.96.27l1.98-.19q.69-.07.76.62.11 1.18.71 2.12.33.5-.19.8-1.75.99-3.77 1.27-7.22.99-7.42-5.74-.15-4.8-.07-10.12.01-.64-.63-.58l-1.43.13a.76.76 0 0 1-.83-.82l.25-2.7a.81.81 0 0 1 .76-.74l1.51-.09q.52-.03.51-.55z"/><path fill="#9fcc47" d="M188.05 105.8c.45-.82.82-1.66 1.6-2.23q2.98-2.12 6.39-.75.42.17.3.61l-1.09 4.1a.48.48 0 0 1-.59.34c-4.27-1.19-5.97 1.4-5.87 5.09q.13 5.11.02 9.5-.02.54-.56.54h-4.7q-.64 0-.61-.64.4-9.14-.43-18.65-.05-.57.51-.68l3.46-.66q.6-.12.7.49l.48 2.87q.1.59.39.07zM202.93 123.33c-5.9-.92-6.78-8.07-6.02-12.92q1.38-8.73 10.35-8.13c5.59.37 7.07 4.63 7.38 9.37.49 7.56-3.35 12.98-11.71 11.68zm2.827-4.12a6.17 2.84 89.1 0 0 2.743-6.215 6.17 2.84 89.1 0 0-2.937-6.124 6.17 2.84 89.1 0 0-2.743 6.214 6.17 2.84 89.1 0 0 2.937 6.124zM24.48 114.85q-1.48.01-1.05 1.42l.27.92a2.73 2.71 86.2 0 0 2.17 1.91q2.71.45 6.07-1.05.28-.13.38.17l1.15 3.5q.07.22-.14.32c-5.96 3.09-15.37 3.04-16.17-5.82-.26-2.92-.42-6.43 1.05-9.02q3.68-6.48 11.82-3.85c3.54 1.15 3.97 7.6 3.54 10.92q-.08.54-.62.54l-8.47.04zm-.58-3.88l3.34.02a.44.44 0 0 0 .44-.44v-.34a2.74 1.86-89.6 0 0-1.84-2.75h-.5a2.74 1.86-89.6 0 0-1.88 2.73v.34a.44.44 0 0 0 .44.44z"/><path fill="#fff" d="M62.5 124.45q-.8 1.84-1.64 3.47-1.03 2.02-2.56 2.59-2.2.82-4.05-.6 1.78-2.18 1.88-3.91.55-9.47-.15-22.08-.03-.52.5-.57l3.57-.28q.79-.06.81.73l.02.95q.02.69.49.19 3.13-3.35 7.54-1.91 2.81.92 3.81 3.78 2.22 6.39-.15 11.85-2.81 6.46-9.7 5.01-.45-.09-.59.34-.12.34.22.44zm-.05-15.93l.02 9.58a1.07 1.07 0 0 0 1.07 1.07h.89a3.77 2.72 89.9 0 0 2.71-3.77v-4.18a3.77 2.72 89.9 0 0-2.73-3.77h-.89a1.07 1.07 0 0 0-1.07 1.07zM124.94 114.86q-1.93.01-1.01 1.71l.52.97q1.09 2.01 3.36 1.7 2.26-.31 4.44-1.07.52-.19.7.34l.94 2.85a.65.65 0 0 1-.33.79c-4.5 2.24-12.72 3.24-14.91-2.58q-2.98-7.88.72-13.4 2.32-3.45 6.92-3.59c7.38-.23 8.27 5.64 7.62 11.66q-.07.6-.67.6l-8.3.02zm-.43-3.89l3.4.04a.46.46 0 0 0 .47-.46v-.32a2.74 1.89-89.4 0 0-1.86-2.76h-.54a2.74 1.89-89.4 0 0-1.92 2.72v.32a.46.46 0 0 0 .45.46zM142.23 108.13a1.3 1.3 0 0 0 .4 1.74c3.71 2.5 12.37 4.15 7.84 11-3.07 4.66-10.62 3.17-14.69 1q-.28-.15-.13-.43l1.86-3.46q.14-.26.42-.16c1.48.55 5.3 2.1 6.79 1.13a1.23 1.22-48.8 0 0-.14-2.14c-2.84-1.33-7.78-3.07-8.35-6.49-.77-4.68 2.67-7.27 6.83-7.71q6.51-.67 8.47 4.88.35.97-.65 1.22l-3.67.89q-.89.21-1.08-.69-.25-1.18-1.35-1.77a1.6 1.58-45.4 0 0-1.56.02q-.65.37-.99.97zM162.67 107.56c-3.53-.74-2.97 5.64-2.73 7.61.68 5.37 4.38 4.21 8.09 3.04q.75-.24 1 .51l.7 2.07q.31.91-.53 1.37c-4.03 2.25-11.85 3.1-14.32-1.98-2.56-5.26-2.33-14.62 4.39-16.93q3.84-1.33 7.23.21c2.48 1.14 3.2 4.18 3.28 6.57a.77.77 0 0 1-.77.8l-4.31.04q-.76 0-.73-.76.04-1.03-.52-1.99-.27-.45-.78-.56zM94.01 111.19q.69-.03.6-.71l-.3-2.18q-.09-.65-.73-.73-3.14-.4-6.18.9-.32.13-.46-.18l-1.49-3.34q-.12-.26.14-.39 4.84-2.3 11.08-1.43c2.42.33 3.87 2.76 3.94 5.04q.14 4.53.05 9.31c-.02 1.07.35 2 1.07 2.77a.71.7-43 0 1-.04.99l-2.56 2.41a.86.86 0 0 1-1.21-.05l-1.84-2.01a.46.45-47.3 0 0-.69.03q-1.94 2.45-5.81 2.3c-6.02-.25-6.61-8.57-2.07-11.05q2.81-1.54 6.5-1.68zm-.17 8.02a.61.61 0 0 0 .55-.56l.21-3.09a.61.61 0 0 0-.83-.61l-2.87 1.13a.61.61 0 0 0-.39.57l.04 2.19a.61.61 0 0 0 .66.6l2.63-.23z"/><path fill="#9fcc47" d="M47.43 121.93c-4.74 3.52-11.34 2.36-11.25-4.41.05-4.5-.06-9.05.01-13.73q.01-.56.57-.59l5.2-.22q.51-.02.51.48l-.02 14q0 1.57 1.57 1.69.31.02.62-.01 1.91-.2 1.91-2.12l-.01-13.12q0-.55.55-.59l5.15-.35q.58-.04.59.54l.08 18.88q0 .8-.79.91l-3.01.4q-.68.09-.82-.58l-.21-.94q-.13-.63-.65-.24z"/><ellipse fill="#006978" cx="0" cy="0" transform="rotate(89.1 45.415 160.978)" rx="6.17" ry="2.84"/><path fill="#006978" d="M23.9 110.97a.44.44 0 0 1-.44-.44v-.34a2.74 1.86-89.6 0 1 1.88-2.73h.5a2.74 1.86-89.6 0 1 1.84 2.75v.34a.44.44 0 0 1-.44.44l-3.34-.02zM62.45 108.52a1.07 1.07 0 0 1 1.07-1.07h.89a3.77 2.72 89.9 0 1 2.73 3.77v4.18a3.77 2.72 89.9 0 1-2.71 3.77h-.89a1.07 1.07 0 0 1-1.07-1.07l-.02-9.58zM124.51 110.97a.46.46 0 0 1-.45-.46v-.32a2.74 1.89-89.4 0 1 1.92-2.72h.54a2.74 1.89-89.4 0 1 1.86 2.76v.32a.46.46 0 0 1-.47.46l-3.4-.04zM93.84 119.21l-2.63.23a.61.61 0 0 1-.66-.6l-.04-2.19a.61.61 0 0 1 .39-.57l2.87-1.13a.61.61 0 0 1 .83.61l-.21 3.09a.61.61 0 0 1-.55.56z"/><circle fill="#9fcc47" cx="176.17" cy="120.11" r="3.6"/><path fill="#9fcc47" d="M62.5 124.45l-.04 14.47a.72.71 88.3 0 1-.67.72l-4.85.34q-.87.06-.71-.79l.09-.44q.21-1.09-.82-.66l-1.08.44q-1.78.75-1.1-1.06.47-1.24 1.17-2.33.45-.72-.38-.58-1.61.27-3.15.22-.92-.03-.07-.37c1.31-.53 2.35-1.47 3.12-2.64q.36-.56-.27-.35-1.91.64-3.91.42a.82.81 85.8 0 1-.7-.61q-.07-.28.13-.48.2-.2.47-.22 2.5-.2 4.52-.62 1.85 1.42 4.05.6 1.53-.57 2.56-2.59.84-1.63 1.64-3.47z"/></svg>
